<?xml version="1.0" encoding="UTF-8" standalone="no"?>
<svg
   width="16mm"
   height="16mm"
   viewBox="0 0 16 16"
   version="1.1"
   id="svg122"
   xml:space="preserve"
   xmlns="http://www.w3.org/2000/svg"
   xmlns:svg="http://www.w3.org/2000/svg"><defs
     id="defs119" /><g
     id="layer1"><ellipse
       style="display:inline;fill:#000000;fill-opacity:1;stroke-width:0.268622"
       id="path178"
       ry="7.981658"
       rx="8.0033178"
       cy="8.0033178"
       cx="8.0033188" /><g
       featurekey="monogramFeature-0"
       transform="matrix(0.3267013,0,0,0.3267013,2.9328034,-4.9152631)"
       fill="#eeeeee"
       id="g997"
       style="opacity:1;fill:#eeeeee;fill-opacity:1;fill-rule:nonzero;stroke:#ffffff;stroke-width:1.53045;stroke-dasharray:none;stroke-opacity:1"><path
         d="m 15.243,19.164 c -3.9719,0 -7.4538,2.1024 -9.4182,5.2465 l 21.661,16.322 v 6.5829 h -0.2485 l 0.2485,0.18668 v 0.28348 c 0,6.7512 -5.4927,12.243 -12.244,12.243 -6.7513,0 -12.243,-5.4921 -12.243,-12.243 H 4.134 c 0,6.1248 4.9828,11.108 11.108,11.108 6.0318,0 10.955,-4.8311 11.105,-10.826 L 2.999,30.55656 v -0.28348 c 0,-6.7512 5.4921,-12.243 12.243,-12.243 6.7509,0 12.244,5.4921 12.244,12.243 h -1.1352 c 0,-6.1248 -4.9834,-11.108 -11.108,-11.108 z M 26.351,41.299 5.268,25.413 c -0.68016,1.3913 -1.0891,2.9383 -1.1299,4.5786 l 22.213,16.66 v -5.3521 z"
         id="path995"
         style="fill:#eeeeee;fill-opacity:1;fill-rule:nonzero;stroke:#ffffff;stroke-width:1.83654;stroke-dasharray:none;stroke-opacity:1" /></g></g></svg>
