<svg xmlns="http://www.w3.org/2000/svg" viewBox="0 0 315.6011421255058 282.6117619791112" height="282.6117619791112" width="315.6011421255058" style="width: 315.601px; height: 282.612px; position: absolute; top: 50%; left: 50%; z-index: 0; cursor: pointer; transform: translate(-50%, -50%) scale(0.509533);"><g featurekey="monogramFeature-0" transform="matrix(5.15536476747697,0,0,5.15536476747697,79.54009562013289,-92.95165311986928)" fill="#eeeeee"><path d="M15.243 19.164 c-3.9719 0 -7.4538 2.1024 -9.4182 5.2465 l21.661 16.322 l0 6.5829 l-0.2485 0 l0.2485 0.18668 l0 0.28348 c0 6.7512 -5.4927 12.243 -12.244 12.243 s-12.243 -5.4921 -12.243 -12.243 l1.1352 0 c0 6.1248 4.9828 11.108 11.108 11.108 c6.0318 0 10.955 -4.8311 11.105 -10.826 l-23.348 -17.511 l0 -0.28348 c0 -6.7512 5.4921 -12.243 12.243 -12.243 s12.244 5.4921 12.244 12.243 l-1.1352 0 c0 -6.1248 -4.9834 -11.108 -11.108 -11.108 z M26.351 41.299 l-21.083 -15.886 c-0.68016 1.3913 -1.0891 2.9383 -1.1299 4.5786 l22.213 16.66 l0 -5.3521 z"></path></g><g id="SvgjsG1362" featurekey="nameFeature-0" transform="matrix(1.5760801012874703,0,0,1.5760801012874703,-3.460527948451287,218.62291227174728)" fill="#eeeeee"><path d="M12.12 24.46 c5.52 1.18 10.26 2.7 10.26 8.52 c0 4.26 -3.06 7.62 -10.14 7.62 c-5.84 0 -9.66 -2.24 -10.04 -6.38 c-0.04 -0.4 0.2 -0.74 0.56 -0.74 l1.36 0 c0.36 0 0.58 0.3 0.6 0.62 c0.26 2.54 3.06 4.2 7.52 4.2 c4.96 0 7.66 -1.74 7.66 -5.36 c0 -4.3 -3.32 -4.96 -7.78 -6.06 c-5.12 -1.26 -9.18 -2.84 -9.18 -8.16 c0 -4.22 3.02 -7.06 9 -7.06 c5.64 0 9.16 2.18 9.58 6.3 c0.04 0.4 -0.2 0.56 -0.56 0.56 l-1.26 0 c-0.36 0 -0.58 -0.12 -0.6 -0.44 c-0.26 -2.44 -2.92 -4.18 -7.18 -4.18 c-3.92 0 -6.6 1.58 -6.6 4.82 c0 3.42 2.7 4.84 6.8 5.74 z M54.03 39.32 c0.16 0.4 -0.04 0.68 -0.48 0.68 l-1.26 0 c-0.32 0 -0.54 -0.12 -0.68 -0.48 l-2.3 -6.06 l-14.12 0 l-2.3 6.06 c-0.14 0.36 -0.36 0.48 -0.68 0.48 l-1.26 0 c-0.44 0 -0.64 -0.28 -0.48 -0.68 l10.32 -26.84 c0.12 -0.32 0.42 -0.48 0.74 -0.48 l1.48 0 c0.32 0 0.58 0.16 0.7 0.48 z M36.09 31.14 l12.32 0 l-6.16 -16.2 z M84.18 12 c0.36 0 0.6 0.24 0.6 0.6 l0 16.08 c0 7.88 -4 11.9 -11.08 11.9 c-7.1 0 -11.08 -4.02 -11.08 -11.9 l0 -16.08 c0 -0.36 0.24 -0.6 0.6 -0.6 l1.3 0 c0.36 0 0.6 0.24 0.6 0.6 l0 16.08 c0 6.66 3.44 9.58 8.58 9.58 c5.12 0 8.58 -2.92 8.58 -9.58 l0 -16.08 c0 -0.36 0.24 -0.6 0.6 -0.6 l1.3 0 z M112.51 37.64 c0.36 0 0.6 0.24 0.6 0.6 l0 1.16 c0 0.36 -0.24 0.6 -0.6 0.6 l-16.7 0 c-0.36 0 -0.6 -0.24 -0.6 -0.6 l0 -26.8 c0 -0.36 0.24 -0.6 0.6 -0.6 l1.3 0 c0.36 0 0.6 0.24 0.6 0.6 l0 25.04 l14.8 0 z M143 12 c0.36 0 0.6 0.24 0.6 0.6 l0 26.8 c0 0.36 -0.24 0.6 -0.6 0.6 l-1.3 0 c-0.36 0 -0.6 -0.24 -0.6 -0.6 l0 -12.58 l-15.76 0 l0 12.58 c0 0.36 -0.24 0.6 -0.6 0.6 l-1.3 0 c-0.36 0 -0.6 -0.24 -0.6 -0.6 l0 -26.8 c0 -0.36 0.24 -0.6 0.6 -0.6 l1.3 0 c0.36 0 0.6 0.24 0.6 0.6 l0 11.86 l15.76 0 l0 -11.86 c0 -0.36 0.24 -0.6 0.6 -0.6 l1.3 0 z M163.45 24.46 c5.52 1.18 10.26 2.7 10.26 8.52 c0 4.26 -3.06 7.62 -10.14 7.62 c-5.84 0 -9.66 -2.24 -10.04 -6.38 c-0.04 -0.4 0.2 -0.74 0.56 -0.74 l1.36 0 c0.36 0 0.58 0.3 0.6 0.62 c0.26 2.54 3.06 4.2 7.52 4.2 c4.96 0 7.66 -1.74 7.66 -5.36 c0 -4.3 -3.32 -4.96 -7.78 -6.06 c-5.12 -1.26 -9.18 -2.84 -9.18 -8.16 c0 -4.22 3.02 -7.06 9 -7.06 c5.64 0 9.16 2.18 9.58 6.3 c0.04 0.4 -0.2 0.56 -0.56 0.56 l-1.26 0 c-0.36 0 -0.58 -0.12 -0.6 -0.44 c-0.26 -2.44 -2.92 -4.18 -7.18 -4.18 c-3.92 0 -6.6 1.58 -6.6 4.82 c0 3.42 2.7 4.84 6.8 5.74 z M201.83999999999997 12 c0.36 0 0.6 0.24 0.6 0.6 l0 1.16 c0 0.36 -0.24 0.6 -0.6 0.6 l-15.7 0 l0 9.9 l14.78 0 c0.36 0 0.6 0.24 0.6 0.6 l0 1.16 c0 0.36 -0.24 0.6 -0.6 0.6 l-14.78 0 l0 12.78 c0 0.36 -0.24 0.6 -0.6 0.6 l-1.3 0 c-0.36 0 -0.6 -0.24 -0.6 -0.6 l0 -26.8 c0 -0.36 0.24 -0.6 0.6 -0.6 l17.6 0 z"></path></g></svg>
